<mxfile host="app.diagrams.net" modified="2023-10-13T23:46:02.880Z" agent="Mozilla/5.0 (X11; Linux x86_64; rv:109.0) Gecko/20100101 Firefox/118.0" etag="-HGUWyajDzl1G-ypoPCq" version="22.0.4" type="device">
  <diagram name="Page-1" id="dHleDttF6AtllguyhROY">
    <mxGraphModel dx="989" dy="534" grid="1" gridSize="10" guides="1" tooltips="1" connect="1" arrows="1" fold="1" page="1" pageScale="1" pageWidth="850" pageHeight="1100" math="0" shadow="0">
      <root>
        <mxCell id="0" />
        <mxCell id="1" parent="0" />
        <mxCell id="Sj_7jXGFg_JzI0JZr41N-35" value="" style="endArrow=none;html=1;rounded=0;" parent="1" edge="1">
          <mxGeometry width="50" height="50" relative="1" as="geometry">
            <mxPoint x="130" y="40" as="sourcePoint" />
            <mxPoint x="130" y="40" as="targetPoint" />
          </mxGeometry>
        </mxCell>
        <mxCell id="Sj_7jXGFg_JzI0JZr41N-37" value="" style="endArrow=none;html=1;rounded=0;" parent="1" edge="1">
          <mxGeometry width="50" height="50" relative="1" as="geometry">
            <mxPoint x="120" y="50" as="sourcePoint" />
            <mxPoint x="120" y="50" as="targetPoint" />
          </mxGeometry>
        </mxCell>
        <mxCell id="Sj_7jXGFg_JzI0JZr41N-39" value="" style="endArrow=none;html=1;rounded=0;" parent="1" edge="1">
          <mxGeometry width="50" height="50" relative="1" as="geometry">
            <mxPoint x="130" y="60" as="sourcePoint" />
            <mxPoint x="130" y="60" as="targetPoint" />
          </mxGeometry>
        </mxCell>
        <mxCell id="Sj_7jXGFg_JzI0JZr41N-58" value="" style="endArrow=none;html=1;rounded=0;entryX=0.25;entryY=1;entryDx=0;entryDy=0;" parent="1" source="Sj_7jXGFg_JzI0JZr41N-70" target="Sj_7jXGFg_JzI0JZr41N-1" edge="1">
          <mxGeometry width="50" height="50" relative="1" as="geometry">
            <mxPoint x="160" y="425" as="sourcePoint" />
            <mxPoint x="370" y="355" as="targetPoint" />
          </mxGeometry>
        </mxCell>
        <mxCell id="Sj_7jXGFg_JzI0JZr41N-102" value="removeUser" style="edgeLabel;html=1;align=center;verticalAlign=middle;resizable=0;points=[];" parent="Sj_7jXGFg_JzI0JZr41N-58" vertex="1" connectable="0">
          <mxGeometry x="-0.6876" y="2" relative="1" as="geometry">
            <mxPoint as="offset" />
          </mxGeometry>
        </mxCell>
        <mxCell id="Sj_7jXGFg_JzI0JZr41N-67" value="" style="endArrow=none;html=1;rounded=0;exitX=0.75;exitY=1;exitDx=0;exitDy=0;" parent="1" source="Sj_7jXGFg_JzI0JZr41N-22" edge="1">
          <mxGeometry width="50" height="50" relative="1" as="geometry">
            <mxPoint x="487.5" y="395" as="sourcePoint" />
            <mxPoint x="560" y="425" as="targetPoint" />
          </mxGeometry>
        </mxCell>
        <mxCell id="Sj_7jXGFg_JzI0JZr41N-7" value="" style="endArrow=none;html=1;rounded=0;exitX=0.75;exitY=1;exitDx=0;exitDy=0;" parent="1" source="Sj_7jXGFg_JzI0JZr41N-25" edge="1">
          <mxGeometry width="50" height="50" relative="1" as="geometry">
            <mxPoint x="630" y="387.44000000000005" as="sourcePoint" />
            <mxPoint x="680" y="425" as="targetPoint" />
          </mxGeometry>
        </mxCell>
        <mxCell id="Sj_7jXGFg_JzI0JZr41N-69" value="" style="endArrow=none;html=1;rounded=0;entryX=0.5;entryY=1;entryDx=0;entryDy=0;" parent="1" source="Sj_7jXGFg_JzI0JZr41N-8" target="Sj_7jXGFg_JzI0JZr41N-1" edge="1">
          <mxGeometry width="50" height="50" relative="1" as="geometry">
            <mxPoint x="360" y="425" as="sourcePoint" />
            <mxPoint x="442.5" y="375" as="targetPoint" />
          </mxGeometry>
        </mxCell>
        <mxCell id="Sj_7jXGFg_JzI0JZr41N-97" value="userAuthentication" style="edgeLabel;html=1;align=center;verticalAlign=middle;resizable=0;points=[];" parent="Sj_7jXGFg_JzI0JZr41N-69" vertex="1" connectable="0">
          <mxGeometry x="-0.2643" y="1" relative="1" as="geometry">
            <mxPoint x="6" y="16" as="offset" />
          </mxGeometry>
        </mxCell>
        <mxCell id="Sj_7jXGFg_JzI0JZr41N-1" value="registrationService" style="rounded=0;whiteSpace=wrap;html=1;" parent="1" vertex="1">
          <mxGeometry x="347.5" y="255" width="140" height="60" as="geometry" />
        </mxCell>
        <mxCell id="Sj_7jXGFg_JzI0JZr41N-80" value="" style="endArrow=none;html=1;rounded=0;exitX=0.75;exitY=1;exitDx=0;exitDy=0;" parent="1" source="Sj_7jXGFg_JzI0JZr41N-1" target="Sj_7jXGFg_JzI0JZr41N-25" edge="1">
          <mxGeometry width="50" height="50" relative="1" as="geometry">
            <mxPoint x="453" y="315" as="sourcePoint" />
            <mxPoint x="680" y="425" as="targetPoint" />
          </mxGeometry>
        </mxCell>
        <mxCell id="Sj_7jXGFg_JzI0JZr41N-100" value="removeDevice" style="edgeLabel;html=1;align=center;verticalAlign=middle;resizable=0;points=[];" parent="Sj_7jXGFg_JzI0JZr41N-80" vertex="1" connectable="0">
          <mxGeometry x="0.5306" y="-1" relative="1" as="geometry">
            <mxPoint as="offset" />
          </mxGeometry>
        </mxCell>
        <mxCell id="Sj_7jXGFg_JzI0JZr41N-25" value="" style="ellipse;whiteSpace=wrap;html=1;aspect=fixed;" parent="1" vertex="1">
          <mxGeometry x="670" y="415" width="20" height="20" as="geometry" />
        </mxCell>
        <mxCell id="Sj_7jXGFg_JzI0JZr41N-82" value="" style="endArrow=none;html=1;rounded=0;exitX=0.75;exitY=1;exitDx=0;exitDy=0;" parent="1" source="Sj_7jXGFg_JzI0JZr41N-1" target="Sj_7jXGFg_JzI0JZr41N-22" edge="1">
          <mxGeometry width="50" height="50" relative="1" as="geometry">
            <mxPoint x="453" y="315" as="sourcePoint" />
            <mxPoint x="560" y="425" as="targetPoint" />
          </mxGeometry>
        </mxCell>
        <mxCell id="Sj_7jXGFg_JzI0JZr41N-99" value="getDevice" style="edgeLabel;html=1;align=center;verticalAlign=middle;resizable=0;points=[];" parent="Sj_7jXGFg_JzI0JZr41N-82" vertex="1" connectable="0">
          <mxGeometry x="0.0262" y="-1" relative="1" as="geometry">
            <mxPoint x="26" y="26" as="offset" />
          </mxGeometry>
        </mxCell>
        <mxCell id="Sj_7jXGFg_JzI0JZr41N-22" value="" style="ellipse;whiteSpace=wrap;html=1;aspect=fixed;" parent="1" vertex="1">
          <mxGeometry x="550" y="415" width="20" height="20" as="geometry" />
        </mxCell>
        <mxCell id="Sj_7jXGFg_JzI0JZr41N-83" value="" style="endArrow=none;html=1;rounded=0;" parent="1" target="Sj_7jXGFg_JzI0JZr41N-18" edge="1">
          <mxGeometry width="50" height="50" relative="1" as="geometry">
            <mxPoint x="420" y="315" as="sourcePoint" />
            <mxPoint x="480" y="425" as="targetPoint" />
          </mxGeometry>
        </mxCell>
        <mxCell id="Sj_7jXGFg_JzI0JZr41N-98" value="getAllDevices" style="edgeLabel;html=1;align=center;verticalAlign=middle;resizable=0;points=[];" parent="Sj_7jXGFg_JzI0JZr41N-83" vertex="1" connectable="0">
          <mxGeometry x="0.2234" y="-3" relative="1" as="geometry">
            <mxPoint x="-2" y="-13" as="offset" />
          </mxGeometry>
        </mxCell>
        <mxCell id="Sj_7jXGFg_JzI0JZr41N-18" value="" style="ellipse;whiteSpace=wrap;html=1;aspect=fixed;" parent="1" vertex="1">
          <mxGeometry x="350" y="470" width="20" height="20" as="geometry" />
        </mxCell>
        <mxCell id="Sj_7jXGFg_JzI0JZr41N-8" value="" style="ellipse;whiteSpace=wrap;html=1;aspect=fixed;" parent="1" vertex="1">
          <mxGeometry x="487.5" y="440" width="20" height="20" as="geometry" />
        </mxCell>
        <mxCell id="Sj_7jXGFg_JzI0JZr41N-85" value="" style="endArrow=none;html=1;rounded=0;exitX=0.25;exitY=1;exitDx=0;exitDy=0;" parent="1" source="Sj_7jXGFg_JzI0JZr41N-1" target="Sj_7jXGFg_JzI0JZr41N-68" edge="1">
          <mxGeometry width="50" height="50" relative="1" as="geometry">
            <mxPoint x="383" y="315" as="sourcePoint" />
            <mxPoint x="280" y="425" as="targetPoint" />
          </mxGeometry>
        </mxCell>
        <mxCell id="Sj_7jXGFg_JzI0JZr41N-101" value="getUser" style="edgeLabel;html=1;align=center;verticalAlign=middle;resizable=0;points=[];" parent="Sj_7jXGFg_JzI0JZr41N-85" vertex="1" connectable="0">
          <mxGeometry x="0.3744" y="-2" relative="1" as="geometry">
            <mxPoint x="-6" y="11" as="offset" />
          </mxGeometry>
        </mxCell>
        <mxCell id="Sj_7jXGFg_JzI0JZr41N-68" value="" style="ellipse;whiteSpace=wrap;html=1;aspect=fixed;" parent="1" vertex="1">
          <mxGeometry x="250" y="470" width="20" height="20" as="geometry" />
        </mxCell>
        <mxCell id="Sj_7jXGFg_JzI0JZr41N-87" value="" style="endArrow=none;html=1;rounded=0;entryX=0.25;entryY=1;entryDx=0;entryDy=0;" parent="1" target="Sj_7jXGFg_JzI0JZr41N-70" edge="1">
          <mxGeometry width="50" height="50" relative="1" as="geometry">
            <mxPoint x="160" y="425" as="sourcePoint" />
            <mxPoint x="383" y="315" as="targetPoint" />
          </mxGeometry>
        </mxCell>
        <mxCell id="Sj_7jXGFg_JzI0JZr41N-70" value="" style="ellipse;whiteSpace=wrap;html=1;aspect=fixed;" parent="1" vertex="1">
          <mxGeometry x="150" y="415" width="20" height="20" as="geometry" />
        </mxCell>
        <mxCell id="Sj_7jXGFg_JzI0JZr41N-2" value="&amp;lt;&amp;lt;subsystem&amp;gt;&amp;gt;" style="text;html=1;strokeColor=none;fillColor=none;align=center;verticalAlign=middle;whiteSpace=wrap;rounded=0;" parent="1" vertex="1">
          <mxGeometry x="387.5" y="255" width="60" height="30" as="geometry" />
        </mxCell>
        <mxCell id="Sj_7jXGFg_JzI0JZr41N-89" value="" style="endArrow=none;html=1;rounded=0;exitX=0.75;exitY=0;exitDx=0;exitDy=0;entryX=-0.013;entryY=0.471;entryDx=0;entryDy=0;entryPerimeter=0;" parent="1" source="Sj_7jXGFg_JzI0JZr41N-1" target="Sj_7jXGFg_JzI0JZr41N-93" edge="1">
          <mxGeometry width="50" height="50" relative="1" as="geometry">
            <mxPoint x="460" y="185" as="sourcePoint" />
            <mxPoint x="480" y="145" as="targetPoint" />
          </mxGeometry>
        </mxCell>
        <mxCell id="Sj_7jXGFg_JzI0JZr41N-95" value="addDevice" style="edgeLabel;html=1;align=center;verticalAlign=middle;resizable=0;points=[];" parent="Sj_7jXGFg_JzI0JZr41N-89" vertex="1" connectable="0">
          <mxGeometry x="0.1206" y="3" relative="1" as="geometry">
            <mxPoint x="1" y="10" as="offset" />
          </mxGeometry>
        </mxCell>
        <mxCell id="Sj_7jXGFg_JzI0JZr41N-91" value="" style="endArrow=none;html=1;rounded=0;exitX=0.25;exitY=0;exitDx=0;exitDy=0;entryX=-0.002;entryY=0.565;entryDx=0;entryDy=0;entryPerimeter=0;" parent="1" source="Sj_7jXGFg_JzI0JZr41N-1" target="Sj_7jXGFg_JzI0JZr41N-92" edge="1">
          <mxGeometry width="50" height="50" relative="1" as="geometry">
            <mxPoint x="383" y="255" as="sourcePoint" />
            <mxPoint x="359.71621103588996" y="154.75132855791617" as="targetPoint" />
          </mxGeometry>
        </mxCell>
        <mxCell id="Sj_7jXGFg_JzI0JZr41N-94" value="addUser" style="edgeLabel;html=1;align=center;verticalAlign=middle;resizable=0;points=[];" parent="Sj_7jXGFg_JzI0JZr41N-91" vertex="1" connectable="0">
          <mxGeometry x="-0.096" y="-3" relative="1" as="geometry">
            <mxPoint x="-8" y="-1" as="offset" />
          </mxGeometry>
        </mxCell>
        <mxCell id="Sj_7jXGFg_JzI0JZr41N-92" value="" style="verticalLabelPosition=bottom;verticalAlign=top;html=1;shape=mxgraph.basic.arc;startAngle=0.5205747559124867;endAngle=0.9747492307754936;rotation=-95;" parent="1" vertex="1">
          <mxGeometry x="338.75" y="115" width="37.5" height="30" as="geometry" />
        </mxCell>
        <mxCell id="Sj_7jXGFg_JzI0JZr41N-93" value="" style="verticalLabelPosition=bottom;verticalAlign=top;html=1;shape=mxgraph.basic.arc;startAngle=0.5205747559124867;endAngle=0.9747492307754936;rotation=-75;" parent="1" vertex="1">
          <mxGeometry x="470" y="115" width="37.5" height="30" as="geometry" />
        </mxCell>
        <mxCell id="Sj_7jXGFg_JzI0JZr41N-106" value="" style="rounded=0;whiteSpace=wrap;html=1;" parent="1" vertex="1">
          <mxGeometry x="110" y="660" width="140" height="50" as="geometry" />
        </mxCell>
        <mxCell id="Sj_7jXGFg_JzI0JZr41N-108" value="analyticsService" style="rounded=0;whiteSpace=wrap;html=1;" parent="1" vertex="1">
          <mxGeometry x="570" y="660" width="140" height="60" as="geometry" />
        </mxCell>
        <mxCell id="Sj_7jXGFg_JzI0JZr41N-109" value="&amp;lt;&amp;lt;subsystem&amp;gt;&amp;gt;" style="text;html=1;strokeColor=none;fillColor=none;align=center;verticalAlign=middle;whiteSpace=wrap;rounded=0;" parent="1" vertex="1">
          <mxGeometry x="610" y="660" width="60" height="30" as="geometry" />
        </mxCell>
        <mxCell id="20i86_9z2JxVx02scOoS-1" value="" style="endArrow=none;html=1;rounded=0;exitX=0.13;exitY=-0.061;exitDx=0;exitDy=0;exitPerimeter=0;entryX=-0.031;entryY=0.349;entryDx=0;entryDy=0;entryPerimeter=0;" edge="1" parent="1" target="20i86_9z2JxVx02scOoS-10">
          <mxGeometry width="50" height="50" relative="1" as="geometry">
            <mxPoint x="170.00000000000006" y="656.2800000000001" as="sourcePoint" />
            <mxPoint x="240.19736685708955" y="550.0035395627305" as="targetPoint" />
          </mxGeometry>
        </mxCell>
        <mxCell id="20i86_9z2JxVx02scOoS-14" value="getUser" style="edgeLabel;html=1;align=center;verticalAlign=middle;resizable=0;points=[];" vertex="1" connectable="0" parent="20i86_9z2JxVx02scOoS-1">
          <mxGeometry x="0.3664" y="-1" relative="1" as="geometry">
            <mxPoint y="9" as="offset" />
          </mxGeometry>
        </mxCell>
        <mxCell id="20i86_9z2JxVx02scOoS-10" value="" style="verticalLabelPosition=bottom;verticalAlign=top;html=1;shape=mxgraph.basic.arc;startAngle=0.5205747559124867;endAngle=0.9747492307754936;rotation=-60;" vertex="1" parent="1">
          <mxGeometry x="207.5" y="505" width="37.5" height="30" as="geometry" />
        </mxCell>
        <mxCell id="20i86_9z2JxVx02scOoS-11" value="&amp;lt;&amp;lt;subsystem&amp;gt;&amp;gt;&lt;br&gt;schedulerService" style="text;html=1;strokeColor=none;fillColor=none;align=center;verticalAlign=middle;whiteSpace=wrap;rounded=0;" vertex="1" parent="1">
          <mxGeometry x="120" y="670" width="120" height="30" as="geometry" />
        </mxCell>
        <mxCell id="20i86_9z2JxVx02scOoS-15" value="" style="endArrow=classic;html=1;rounded=0;exitX=0.053;exitY=0.405;exitDx=0;exitDy=0;exitPerimeter=0;entryX=0;entryY=1;entryDx=0;entryDy=0;dashed=1;" edge="1" parent="1" source="20i86_9z2JxVx02scOoS-10" target="Sj_7jXGFg_JzI0JZr41N-68">
          <mxGeometry width="50" height="50" relative="1" as="geometry">
            <mxPoint x="310" y="560" as="sourcePoint" />
            <mxPoint x="240" y="510" as="targetPoint" />
          </mxGeometry>
        </mxCell>
        <mxCell id="20i86_9z2JxVx02scOoS-18" value="" style="endArrow=none;html=1;rounded=0;exitX=0.13;exitY=-0.061;exitDx=0;exitDy=0;exitPerimeter=0;entryX=-0.011;entryY=0.358;entryDx=0;entryDy=0;entryPerimeter=0;" edge="1" parent="1" target="20i86_9z2JxVx02scOoS-20">
          <mxGeometry width="50" height="50" relative="1" as="geometry">
            <mxPoint x="240" y="660" as="sourcePoint" />
            <mxPoint x="310" y="554" as="targetPoint" />
          </mxGeometry>
        </mxCell>
        <mxCell id="20i86_9z2JxVx02scOoS-19" value="getAllDevices" style="edgeLabel;html=1;align=center;verticalAlign=middle;resizable=0;points=[];" vertex="1" connectable="0" parent="20i86_9z2JxVx02scOoS-18">
          <mxGeometry x="0.3664" y="-1" relative="1" as="geometry">
            <mxPoint y="9" as="offset" />
          </mxGeometry>
        </mxCell>
        <mxCell id="20i86_9z2JxVx02scOoS-20" value="" style="verticalLabelPosition=bottom;verticalAlign=top;html=1;shape=mxgraph.basic.arc;startAngle=0.5205747559124867;endAngle=0.9747492307754936;rotation=-60;" vertex="1" parent="1">
          <mxGeometry x="300" y="520" width="37.5" height="30" as="geometry" />
        </mxCell>
        <mxCell id="20i86_9z2JxVx02scOoS-21" value="" style="endArrow=classic;html=1;rounded=0;exitX=0.053;exitY=0.405;exitDx=0;exitDy=0;exitPerimeter=0;entryX=-0.088;entryY=0.903;entryDx=0;entryDy=0;dashed=1;entryPerimeter=0;" edge="1" parent="1" source="20i86_9z2JxVx02scOoS-20" target="Sj_7jXGFg_JzI0JZr41N-18">
          <mxGeometry width="50" height="50" relative="1" as="geometry">
            <mxPoint x="379.5" y="563" as="sourcePoint" />
            <mxPoint x="322.5" y="490" as="targetPoint" />
          </mxGeometry>
        </mxCell>
        <mxCell id="20i86_9z2JxVx02scOoS-23" value="" style="endArrow=none;html=1;rounded=0;exitX=0;exitY=0;exitDx=0;exitDy=0;entryX=-0.063;entryY=0.535;entryDx=0;entryDy=0;entryPerimeter=0;" edge="1" parent="1" target="20i86_9z2JxVx02scOoS-25">
          <mxGeometry width="50" height="50" relative="1" as="geometry">
            <mxPoint x="124.78" y="660" as="sourcePoint" />
            <mxPoint x="57.49995933998392" y="571.501452226277" as="targetPoint" />
          </mxGeometry>
        </mxCell>
        <mxCell id="20i86_9z2JxVx02scOoS-24" value="getTechnicianSchedules" style="edgeLabel;html=1;align=center;verticalAlign=middle;resizable=0;points=[];" vertex="1" connectable="0" parent="20i86_9z2JxVx02scOoS-23">
          <mxGeometry x="0.3664" y="-1" relative="1" as="geometry">
            <mxPoint y="9" as="offset" />
          </mxGeometry>
        </mxCell>
        <mxCell id="20i86_9z2JxVx02scOoS-25" value="" style="verticalLabelPosition=bottom;verticalAlign=top;html=1;shape=mxgraph.basic.arc;startAngle=0.5205747559124867;endAngle=0.9747492307754936;rotation=-97;" vertex="1" parent="1">
          <mxGeometry x="30" y="535" width="37.5" height="30" as="geometry" />
        </mxCell>
        <mxCell id="20i86_9z2JxVx02scOoS-26" value="" style="endArrow=none;html=1;rounded=0;" edge="1" parent="1">
          <mxGeometry width="50" height="50" relative="1" as="geometry">
            <mxPoint x="120" y="710" as="sourcePoint" />
            <mxPoint x="80" y="820" as="targetPoint" />
          </mxGeometry>
        </mxCell>
        <mxCell id="20i86_9z2JxVx02scOoS-27" value="getCalendar" style="edgeLabel;html=1;align=center;verticalAlign=middle;resizable=0;points=[];" vertex="1" connectable="0" parent="20i86_9z2JxVx02scOoS-26">
          <mxGeometry x="0.2234" y="-3" relative="1" as="geometry">
            <mxPoint x="-2" y="-13" as="offset" />
          </mxGeometry>
        </mxCell>
        <mxCell id="20i86_9z2JxVx02scOoS-28" value="" style="ellipse;whiteSpace=wrap;html=1;aspect=fixed;" vertex="1" parent="1">
          <mxGeometry x="60" y="820" width="30" height="30" as="geometry" />
        </mxCell>
        <mxCell id="20i86_9z2JxVx02scOoS-29" value="" style="endArrow=none;html=1;rounded=0;entryX=0.5;entryY=0;entryDx=0;entryDy=0;" edge="1" parent="1">
          <mxGeometry width="50" height="50" relative="1" as="geometry">
            <mxPoint x="190" y="710" as="sourcePoint" />
            <mxPoint x="193.75" y="840" as="targetPoint" />
          </mxGeometry>
        </mxCell>
        <mxCell id="20i86_9z2JxVx02scOoS-30" value="getAuditChecklist" style="edgeLabel;html=1;align=center;verticalAlign=middle;resizable=0;points=[];" vertex="1" connectable="0" parent="20i86_9z2JxVx02scOoS-29">
          <mxGeometry x="0.2234" y="-3" relative="1" as="geometry">
            <mxPoint x="-2" y="-13" as="offset" />
          </mxGeometry>
        </mxCell>
        <mxCell id="20i86_9z2JxVx02scOoS-31" value="" style="ellipse;whiteSpace=wrap;html=1;aspect=fixed;" vertex="1" parent="1">
          <mxGeometry x="180" y="840" width="27.5" height="27.5" as="geometry" />
        </mxCell>
        <mxCell id="20i86_9z2JxVx02scOoS-32" value="" style="endArrow=none;html=1;rounded=0;exitX=1;exitY=1;exitDx=0;exitDy=0;entryX=0;entryY=0;entryDx=0;entryDy=0;" edge="1" parent="1" source="Sj_7jXGFg_JzI0JZr41N-106" target="20i86_9z2JxVx02scOoS-34">
          <mxGeometry width="50" height="50" relative="1" as="geometry">
            <mxPoint x="370" y="700" as="sourcePoint" />
            <mxPoint x="350" y="790" as="targetPoint" />
          </mxGeometry>
        </mxCell>
        <mxCell id="20i86_9z2JxVx02scOoS-33" value="getRemoteChecklist" style="edgeLabel;html=1;align=center;verticalAlign=middle;resizable=0;points=[];" vertex="1" connectable="0" parent="20i86_9z2JxVx02scOoS-32">
          <mxGeometry x="0.2234" y="-3" relative="1" as="geometry">
            <mxPoint x="-2" y="-13" as="offset" />
          </mxGeometry>
        </mxCell>
        <mxCell id="20i86_9z2JxVx02scOoS-34" value="" style="ellipse;whiteSpace=wrap;html=1;aspect=fixed;" vertex="1" parent="1">
          <mxGeometry x="338.75" y="785" width="25" height="25" as="geometry" />
        </mxCell>
      </root>
    </mxGraphModel>
  </diagram>
</mxfile>
